<svg width="20" height="13" viewBox="0 0 20 13" fill="none" xmlns="http://www.w3.org/2000/svg">
<path d="M10.5243 0.414066L19.8238 8.8961C20.0391 9.09227 20.1651 9.36156 20.1785 9.65426C20.192 9.94696 20.0912 10.2267 19.8949 10.4418L19.2704 11.1266C18.8635 11.5723 18.1702 11.6042 17.7247 11.1977L9.91555 4.07513L2.78508 11.893C2.58874 12.1081 2.31962 12.2342 2.02708 12.2477C1.73423 12.2611 1.45466 12.1602 1.23925 11.9641L0.554714 11.3394C0.339454 11.1431 0.213464 10.8739 0.200005 10.5812C0.186546 10.2885 0.287298 10.0088 0.483639 9.79372L8.97325 0.485387C9.17022 0.269772 9.44065 0.143885 9.7337 0.131061C10.0278 0.116885 10.3085 0.21743 10.5243 0.414066Z" fill="white"/>
</svg>
